<?xml version="1.0" encoding="UTF-8"?>
<svg xmlns="http://www.w3.org/2000/svg" version="1.1"
     width="40.64mm" height="128.5mm" viewBox="0 0 40.64 128.5">

  <!-- Transparent background: no root rect; rack rails will show through. -->

  <!-- BACK BRISTLES (deepest red, behind) -->
  <g stroke="#6c0e12" stroke-width="0.55" stroke-linecap="round" fill="none">
    <line x1="2.6" y1="28" x2="2.8" y2="69"/>
    <line x1="3.4" y1="22" x2="3.6" y2="69"/>
    <line x1="4.3" y1="25" x2="4.4" y2="69"/>
    <line x1="5.2" y1="17" x2="5.3" y2="69"/>
    <line x1="6.1" y1="21" x2="6.2" y2="69"/>
    <line x1="7.0" y1="14" x2="7.1" y2="69"/>
    <line x1="7.9" y1="18" x2="8.0" y2="69"/>
    <line x1="8.8" y1="12" x2="8.9" y2="69"/>
    <line x1="9.7" y1="15" x2="9.8" y2="69"/>
    <line x1="10.6" y1="10" x2="10.7" y2="69"/>
    <line x1="11.5" y1="13" x2="11.6" y2="69"/>
    <line x1="12.4" y1="8" x2="12.5" y2="69"/>
    <line x1="13.3" y1="11" x2="13.4" y2="69"/>
    <line x1="14.2" y1="7" x2="14.3" y2="69"/>
    <line x1="15.1" y1="9" x2="15.2" y2="69"/>
    <line x1="16.0" y1="6" x2="16.1" y2="69"/>
    <line x1="16.9" y1="8" x2="17.0" y2="69"/>
    <line x1="17.8" y1="5" x2="17.9" y2="69"/>
    <line x1="18.7" y1="7" x2="18.8" y2="69"/>
    <line x1="19.6" y1="5" x2="19.7" y2="69"/>
    <line x1="20.5" y1="6" x2="20.6" y2="69"/>
    <line x1="21.4" y1="5" x2="21.5" y2="69"/>
    <line x1="22.3" y1="8" x2="22.4" y2="69"/>
    <line x1="23.2" y1="6" x2="23.3" y2="69"/>
    <line x1="24.1" y1="10" x2="24.2" y2="69"/>
    <line x1="25.0" y1="7" x2="25.1" y2="69"/>
    <line x1="25.9" y1="12" x2="26.0" y2="69"/>
    <line x1="26.8" y1="9" x2="26.9" y2="69"/>
    <line x1="27.7" y1="14" x2="27.8" y2="69"/>
    <line x1="28.6" y1="11" x2="28.7" y2="69"/>
    <line x1="29.5" y1="16" x2="29.6" y2="69"/>
    <line x1="30.4" y1="13" x2="30.5" y2="69"/>
    <line x1="31.3" y1="18" x2="31.4" y2="69"/>
    <line x1="32.2" y1="15" x2="32.3" y2="69"/>
    <line x1="33.1" y1="20" x2="33.2" y2="69"/>
    <line x1="34.0" y1="17" x2="34.1" y2="69"/>
    <line x1="34.9" y1="22" x2="35.0" y2="69"/>
    <line x1="35.8" y1="19" x2="35.9" y2="69"/>
    <line x1="36.7" y1="25" x2="36.8" y2="69"/>
    <line x1="37.6" y1="22" x2="37.7" y2="69"/>
    <line x1="38.4" y1="28" x2="38.5" y2="69"/>
  </g>

  <!-- MAIN BRISTLES (full red) -->
  <g stroke="#c81820" stroke-width="0.42" stroke-linecap="round" fill="none">
    <line x1="2.3" y1="26" x2="2.5" y2="69"/>
    <line x1="3.0" y1="20" x2="3.15" y2="69"/>
    <line x1="3.85" y1="23" x2="3.95" y2="69"/>
    <line x1="4.7" y1="15" x2="4.8" y2="69"/>
    <line x1="5.55" y1="19" x2="5.65" y2="69"/>
    <line x1="6.4" y1="12" x2="6.5" y2="69"/>
    <line x1="7.25" y1="16" x2="7.35" y2="69"/>
    <line x1="8.1" y1="10" x2="8.2" y2="69"/>
    <line x1="8.95" y1="13" x2="9.05" y2="69"/>
    <line x1="9.8" y1="8" x2="9.9" y2="69"/>
    <line x1="10.65" y1="11" x2="10.75" y2="69"/>
    <line x1="11.5" y1="6" x2="11.6" y2="69"/>
    <line x1="12.35" y1="9" x2="12.45" y2="69"/>
    <line x1="13.2" y1="5" x2="13.3" y2="69"/>
    <line x1="14.05" y1="7" x2="14.15" y2="69"/>
    <line x1="14.9" y1="4" x2="15.0" y2="69"/>
    <line x1="15.75" y1="6" x2="15.85" y2="69"/>
    <line x1="16.6" y1="4" x2="16.7" y2="69"/>
    <line x1="17.45" y1="5" x2="17.55" y2="69"/>
    <line x1="18.3" y1="3" x2="18.4" y2="69"/>
    <line x1="19.15" y1="4" x2="19.25" y2="69"/>
    <line x1="20.0" y1="3" x2="20.1" y2="69"/>
    <line x1="20.85" y1="4" x2="20.95" y2="69"/>
    <line x1="21.7" y1="3" x2="21.8" y2="69"/>
    <line x1="22.55" y1="6" x2="22.65" y2="69"/>
    <line x1="23.4" y1="4" x2="23.5" y2="69"/>
    <line x1="24.25" y1="8" x2="24.35" y2="69"/>
    <line x1="25.1" y1="5" x2="25.2" y2="69"/>
    <line x1="25.95" y1="10" x2="26.05" y2="69"/>
    <line x1="26.8" y1="7" x2="26.9" y2="69"/>
    <line x1="27.65" y1="12" x2="27.75" y2="69"/>
    <line x1="28.5" y1="9" x2="28.6" y2="69"/>
    <line x1="29.35" y1="14" x2="29.45" y2="69"/>
    <line x1="30.2" y1="11" x2="30.3" y2="69"/>
    <line x1="31.05" y1="16" x2="31.15" y2="69"/>
    <line x1="31.9" y1="13" x2="32.0" y2="69"/>
    <line x1="32.75" y1="18" x2="32.85" y2="69"/>
    <line x1="33.6" y1="15" x2="33.7" y2="69"/>
    <line x1="34.45" y1="20" x2="34.55" y2="69"/>
    <line x1="35.3" y1="17" x2="35.4" y2="69"/>
    <line x1="36.15" y1="22" x2="36.25" y2="69"/>
    <line x1="37.0" y1="19" x2="37.1" y2="69"/>
    <line x1="37.85" y1="25" x2="37.95" y2="69"/>
    <line x1="38.55" y1="22" x2="38.6" y2="69"/>
  </g>

  <!-- BRIGHT FRONT HIGHLIGHTS -->
  <g stroke="#ff5258" stroke-width="0.22" stroke-linecap="round" fill="none" opacity="0.85">
    <line x1="4.0" y1="22" x2="4.1" y2="68"/>
    <line x1="6.8" y1="14" x2="6.9" y2="68"/>
    <line x1="9.5" y1="10" x2="9.6" y2="68"/>
    <line x1="11.9" y1="7" x2="12.0" y2="68"/>
    <line x1="14.3" y1="5" x2="14.4" y2="68"/>
    <line x1="16.5" y1="4" x2="16.6" y2="68"/>
    <line x1="18.6" y1="3" x2="18.7" y2="68"/>
    <line x1="20.32" y1="3" x2="20.42" y2="68"/>
    <line x1="22.1" y1="4" x2="22.2" y2="68"/>
    <line x1="24.0" y1="6" x2="24.1" y2="68"/>
    <line x1="26.2" y1="8" x2="26.3" y2="68"/>
    <line x1="28.4" y1="11" x2="28.5" y2="68"/>
    <line x1="30.7" y1="14" x2="30.8" y2="68"/>
    <line x1="33.0" y1="17" x2="33.1" y2="68"/>
    <line x1="35.5" y1="20" x2="35.6" y2="68"/>
    <line x1="37.8" y1="24" x2="37.9" y2="68"/>
  </g>

  <!-- HANDLE -->
  <g id="handle">

    <!-- Dark base strip where bristles enter the handle -->
    <path d="M 1.6 66.5 L 39.04 66.5 L 39.04 70 L 1.6 70 Z" fill="#0a0a0a"/>

    <!-- Main handle body: rounded block with side bulge -->
    <path d="M 1.6 68
             L 39.04 68
             C 39.5 68 39.7 68.4 39.7 68.9
             L 39.7 86
             C 39.7 87.4 39.0 88.4 38.5 89.6
             C 39.0 90.8 39.7 91.8 39.7 93.2
             L 39.7 108
             C 39.7 110 38.2 111 36.4 111
             L 4.24 111
             C 2.44 111 0.94 110 0.94 108
             L 0.94 93.2
             C 0.94 91.8 1.64 90.8 2.14 89.6
             C 1.64 88.4 0.94 87.4 0.94 86
             L 0.94 68.9
             C 0.94 68.4 1.14 68 1.6 68 Z"
          fill="#181818" stroke="#000" stroke-width="0.18"/>

    <!-- Top edge subtle highlight -->
    <line x1="1.7" y1="68.6" x2="38.94" y2="68.6" stroke="#3a3a3a" stroke-width="0.4" stroke-linecap="round"/>

    <!-- Dark wood-grain curves -->
    <g fill="none" stroke="#000" opacity="0.55">
      <path d="M2.2,73 Q15,72.4 25,73.3 T38.4,72.9" stroke-width="0.12"/>
      <path d="M2.2,78 Q13,77.3 23,78.2 T38.4,77.8" stroke-width="0.1"/>
      <path d="M2.2,83 Q17,82.4 27,83.4 T38.4,82.9" stroke-width="0.12"/>
      <path d="M2.2,97 Q14,96.4 26,97.2 T38.4,96.9" stroke-width="0.12"/>
      <path d="M2.2,102 Q16,101.3 28,102.2 T38.4,101.9" stroke-width="0.1"/>
      <path d="M2.2,107.5 Q18,106.7 28,107.6 T38.4,107.2" stroke-width="0.12"/>
    </g>

    <!-- Lighter wood-grain curves -->
    <g fill="none" stroke="#2a2a2a" opacity="0.6">
      <path d="M2.2,75.5 Q15,74.8 25,75.7 T38.4,75.4" stroke-width="0.1"/>
      <path d="M2.2,80.5 Q12,79.8 24,80.7 T38.4,80.4" stroke-width="0.1"/>
      <path d="M2.2,94 Q15,93.3 26,94.2 T38.4,93.9" stroke-width="0.1"/>
      <path d="M2.2,99.5 Q14,98.8 26,99.7 T38.4,99.4" stroke-width="0.1"/>
      <path d="M2.2,104.5 Q17,103.8 27,104.7 T38.4,104.4" stroke-width="0.1"/>
    </g>

    <!-- Bristle-base shadow (under handle's top edge) -->
    <line x1="1.7" y1="67.2" x2="38.94" y2="67.2" stroke="#000" stroke-width="0.4" opacity="0.7"/>

    <!-- Label plate -->
    <rect x="9.4" y="76.3" width="21.8" height="5.2" rx="0.4" fill="#0d0d0d" stroke="#2c2c2c" stroke-width="0.08"/>

    <!-- DUSTER (rectangle-only block letters, light gray) -->
    <g fill="#dcdcdc">
      <!-- D -->
      <rect x="10.5" y="77.5" width="0.45" height="2.8"/>
      <rect x="10.5" y="77.5" width="1.4" height="0.45"/>
      <rect x="10.5" y="79.85" width="1.4" height="0.45"/>
      <rect x="11.65" y="77.7" width="0.45" height="2.4"/>
      <!-- U -->
      <rect x="12.7" y="77.5" width="0.45" height="2.8"/>
      <rect x="13.95" y="77.5" width="0.45" height="2.8"/>
      <rect x="12.7" y="79.85" width="1.7" height="0.45"/>
      <!-- S -->
      <rect x="15.1" y="77.5" width="1.7" height="0.45"/>
      <rect x="15.1" y="77.5" width="0.45" height="1.45"/>
      <rect x="15.1" y="78.7" width="1.7" height="0.45"/>
      <rect x="16.35" y="78.7" width="0.45" height="1.6"/>
      <rect x="15.1" y="79.85" width="1.7" height="0.45"/>
      <!-- T -->
      <rect x="17.5" y="77.5" width="1.95" height="0.45"/>
      <rect x="18.25" y="77.5" width="0.45" height="2.8"/>
      <!-- E -->
      <rect x="20.15" y="77.5" width="0.45" height="2.8"/>
      <rect x="20.15" y="77.5" width="1.7" height="0.45"/>
      <rect x="20.15" y="78.7" width="1.4" height="0.45"/>
      <rect x="20.15" y="79.85" width="1.7" height="0.45"/>
      <!-- R -->
      <rect x="22.55" y="77.5" width="0.45" height="2.8"/>
      <rect x="22.55" y="77.5" width="1.4" height="0.45"/>
      <rect x="23.5" y="77.7" width="0.45" height="1.3"/>
      <rect x="22.55" y="78.7" width="1.4" height="0.45"/>
      <rect x="23.5" y="79.05" width="0.45" height="1.25"/>
    </g>

  </g>
</svg>
